<svg
  width="48"
  height="48"
  viewBox="0 0 48 48"
  fill="none"
  xmlns="http://www.w3.org/2000/svg"
>
  <defs>
    <linearGradient id="logo-gold" x1="0" y1="0" x2="48" y2="48" gradientUnits="userSpaceOnUse">
      <stop stopColor="#f5d76e" />
      <stop offset="0.5" stopColor="#c9a227" />
      <stop offset="1" stopColor="#8a6d1a" />
    </linearGradient>
    <linearGradient id="logo-rose" x1="0" y1="48" x2="48" y2="0" gradientUnits="userSpaceOnUse">
      <stop stopColor="#b5657a" />
      <stop offset="1" stopColor="#8a3d54" />
    </linearGradient>
    <radialGradient id="logo-glow" cx="24" cy="24" r="20" gradientUnits="userSpaceOnUse">
      <stop stopColor="#c9a227" stopOpacity="0.3" />
      <stop offset="1" stopColor="#c9a227" stopOpacity="0" />
    </radialGradient>
  </defs>

  <circle cx="24" cy="24" r="24" fill="#1a1215" />
  <circle cx="24" cy="24" r="22" fill="url(#logo-glow)" />
  <circle cx="24" cy="24" r="20" stroke="url(#logo-gold)" strokeWidth="1.5" fill="none" opacity="0.4" />

  <path
    d="M24 10c-8.28 0-15 5.9-15 13.2 0 4.06 2.09 7.7 5.38 10.13-.18 1.9-.86 3.7-2.03 5.27a.6.6 0 00.62.94c2.9-.7 5.36-1.99 7.3-3.42 1.2.28 2.45.42 3.73.42 8.28 0 15-5.9 15-13.2S32.28 10 24 10z"
    fill="url(#logo-gold)"
    opacity="0.16"
    stroke="url(#logo-gold)"
    strokeWidth="1.5"
  />

  <path
    d="M24 29.5c-.3 0-.59-.1-.83-.3-3.9-3.28-6.47-5.6-6.47-8.42 0-2.3 1.8-4.08 4.08-4.08 1.3 0 2.55.61 3.22 1.58.67-.97 1.92-1.58 3.22-1.58 2.28 0 4.08 1.78 4.08 4.08 0 2.82-2.57 5.14-6.47 8.42-.24.2-.53.3-.83.3z"
    fill="url(#logo-rose)"
  />

  <circle cx="35" cy="14" r="2.2" fill="#f5d76e" />
  <circle cx="35" cy="14" r="3.6" fill="#f5d76e" opacity="0.3" />
</svg>
